PathFileType	4	(x/y/z)	S01_PSF_T17.trc
DataRate	CameraRate	NumFrames	NumMarkers	Units	OrigDataRate	OrigDataStartFrame	OrigNumFrames
240	240	4	51	mm	240	227	363
Frame#	Time	Sternum			R.Acromium			L.Acromium			Top.Head			R.ASIS			L.ASIS			R.PSIS			L.PSIS			R.Great.Tro			L.Great.Tro			R.Iliac.Crest			L.Iliac.Crest			V.Sacral			R.Thigh.Upper.Post			R.Thigh.Lower.Ant			R.Thigh.Lower.Post			R.Thigh.Upper.Ant			R.Knee.Lat			R.Knee.Med			R.Shank.Upper.Post			R.Shank.Lower.Ant			R.Shank.Lower.Post			R.Shank.Upper.Ant			R.Ankle.Lat			R.Ankle.Med			R.Heel.Upper			R.Heel.Med			R.Heel.Lat			R.Toe.Lat			R.Toe.Med			R.Toe.Tip			L.Thigh.Upper.Post			L.Thigh.Lower.Ant			L.Thigh.Lower.Post			L.Thigh.Upper.Ant			L.Knee.Lat			L.Knee.Med			L.Shank.Upper.Post			L.Shank.Lower.Ant			L.Shank.Lower.Post			L.Shank.Upper.Ant			L.Ankle.Lat			L.Ankle.Med			L.Heel.Upper			L.Heel.Med			L.Heel.Lat			L.Toe.Lat			L.Toe.Med			L.Toe.Tip			Cervical.Spine			Back			
		X1	Y1	Z1	X2	Y2	Z2	X3	Y3	Z3	X4	Y4	Z4	X5	Y5	Z5	X6	Y6	Z6	X7	Y7	Z7	X8	Y8	Z8	X9	Y9	Z9	X10	Y10	Z10	X11	Y11	Z11	X12	Y12	Z12	X13	Y13	Z13	X14	Y14	Z14	X15	Y15	Z15	X16	Y16	Z16	X17	Y17	Z17	X18	Y18	Z18	X19	Y19	Z19	X20	Y20	Z20	X21	Y21	Z21	X22	Y22	Z22	X23	Y23	Z23	X24	Y24	Z24	X25	Y25	Z25	X26	Y26	Z26	X27	Y27	Z27	X28	Y28	Z28	X29	Y29	Z29	X30	Y30	Z30	X31	Y31	Z31	X32	Y32	Z32	X33	Y33	Z33	X34	Y34	Z34	X35	Y35	Z35	X36	Y36	Z36	X37	Y37	Z37	X38	Y38	Z38	X39	Y39	Z39	X40	Y40	Z40	X41	Y41	Z41	X42	Y42	Z42	X43	Y43	Z43	X44	Y44	Z44	X45	Y45	Z45	X46	Y46	Z46	X47	Y47	Z47	X48	Y48	Z48	X49	Y49	Z49	X50	Y50	Z50	X51	Y51	Z51	

227	0.94167	5.868	1251.9	261.14	-101.35	1496.4	447.54	-148.99	1511.4	119.68	-111.09	1824.2	279.97	-30.005	997.76	427.45	-31.454	1009.4	159.53	-271.51	1027.1	330.38	-273.83	1020.7	227.46	-115.19	944.6	504.23	-125.12	948.99	80.219	-120.53	1091.4	491.39	-151.93	1078.8	86.453	-282.57	986.27	277.34	-186.83	650.69	478	-128.71	568.58	458.08	-197.4	563.11	462.33	-114.01	657.34	473.51	-202.72	494.99	461.4	-177.46	493.09	315.37	-344.22	399.01	470.74	-341.91	294.54	435.22	-388.69	344.92	458.02	-299.98	352.64	453.72	-508.17	171.13	419.59	-470.32	166.83	330.81	-580.31	182.98	358.21	-578.36	154.21	325.67	-587.62	148.54	389.32	-438.25	41.41	448.43	-401.57	46.681	325.66	-337.52	42.708	380.67	-43.227	670.62	109.1	62.067	637.45	112.35	-0.42005	592.17	129.98	10.479	714.87	89.827	82.249	535.19	125.29	94.797	548.86	265.36	59.862	392.04	103.93	132.4	313.06	134.34	72.766	315.26	108.25	120.92	388.96	126.56	88.125	103.96	140.61	110.66	115.65	240.2	16.186	71.504	187.21	28.412	47.825	221.41	27.303	45.572	158.71	237.16	44.474	128.8	261.39	56.724	249.77	325.07	68.505	198.7	-212	1561.9	298.04	-295.14	1249.7	317.86
228	0.94583	11.641	1252.8	260.44	-96.022	1497.5	446.46	-143.41	1512	118.52	-105.98	1824.9	278.49	-24.395	998.5	426.75	-25.341	1010.2	158.96	-265.58	1027.6	329.57	-267.87	1021.4	226.6	-109.37	944.92	503.45	-118.94	949.82	79.515	-114.69	1092.3	490.56	-145.54	1079.7	85.789	-276.59	986.85	276.44	-178.94	650.47	478.34	-120.06	568.71	459.28	-188.72	562.73	463.08	-106.15	657.66	474.2	-193.51	494.79	462.54	-167.32	492.16	316.62	-336.04	400.77	471.4	-335.17	296.22	436.31	-381.24	347.36	458.71	-292.45	353.69	454.81	-503	175.29	420.34	-464.99	170.26	331.74	-574.31	189.47	358.87	-573.18	160.99	326.06	-582.81	155.11	389.66	-437.31	42.885	448.43	-400.44	47.877	325.85	-336.8	42.21	380.8	-38.014	671.11	108.54	67.112	637.54	111.97	4.4587	592.48	129.55	15.881	715.14	89.353	86.812	535.12	125.08	99.493	548.95	265.03	63.339	392.15	103.71	135.15	312.55	134.29	75.568	315.26	108.09	124.33	388.54	126.44	88.681	103.94	140.67	111.24	115.39	240.22	16.548	71.758	187.18	28.581	48.007	221.37	27.501	45.781	158.69	237.51	43.759	128.76	261.73	55.542	249.8	325.55	66.927	198.81	-206.61	1562.5	296.79	-289.27	1250.3	316.94
229	0.95	17.393	1253.8	259.77	-90.719	1498.6	445.39	-137.81	1512.7	117.37	-100.87	1825.7	277.03	-18.835	999.31	426.04	-19.27	1011.2	158.39	-259.71	1028.1	328.77	-261.95	1022.2	225.76	-103.59	945.29	502.67	-112.82	950.7	78.814	-108.92	1093.3	489.72	-139.19	1080.7	85.128	-270.66	987.49	275.54	-170.94	650.25	478.72	-111.27	568.89	460.53	-179.9	562.35	463.87	-98.196	658.03	474.94	-184.09	494.6	463.71	-156.95	491.24	317.9	-327.57	402.55	472.1	-328.14	297.94	437.4	-373.51	349.84	459.43	-284.64	354.78	455.92	-497.53	179.57	421.1	-459.4	173.78	332.66	-567.93	196.13	359.54	-567.64	167.93	326.46	-577.65	161.89	390.02	-436.24	44.569	448.41	-399.14	49.238	326.06	-336	41.696	380.98	-32.946	671.63	107.98	71.99	637.62	111.6	9.152	592.81	129.12	21.158	715.41	88.891	91.152	535.03	124.87	103.94	548.98	264.73	66.597	392.22	103.52	137.72	312.05	134.24	78.177	315.24	107.95	127.53	388.12	126.33	89.163	103.92	140.76	111.74	115.16	240.25	16.857	71.969	187.17	28.731	48.157	221.35	27.676	45.963	158.67	237.82	43.168	128.73	262.03	54.505	249.84	325.95	65.554	198.92	-201.22	1563.2	295.54	-283.42	1250.9	316.01
230	0.95417	23.122	1254.8	259.12	-85.439	1499.7	444.32	-132.2	1513.5	116.24	-95.763	1826.6	275.58	-13.331	1000.2	425.33	-13.244	1012.2	157.83	-253.9	1028.7	327.97	-256.08	1023	224.93	-97.842	945.7	501.9	-106.74	951.61	78.121	-103.22	1094.4	488.88	-132.87	1081.7	84.465	-264.78	988.18	274.64	-162.84	650.03	479.15	-102.35	569.11	461.81	-170.93	561.99	464.69	-90.141	658.43	475.71	-174.47	494.44	464.9	-146.39	490.37	319.21	-318.82	404.35	472.85	-320.85	299.71	438.48	-365.48	352.35	460.17	-276.56	355.89	457.03	-491.74	183.98	421.85	-453.54	177.38	333.55	-561.17	202.92	360.21	-561.73	175.03	326.86	-572.11	168.85	390.38	-435	46.474	448.39	-397.62	50.764	326.28	-335.12	41.172	381.2	-28.022	672.18	107.42	76.707	637.7	111.26	13.664	593.15	128.71	26.311	715.7	88.448	95.279	534.92	124.68	108.12	548.97	264.46	69.646	392.28	103.36	140.11	311.55	134.19	80.604	315.21	107.84	130.52	387.7	126.21	89.578	103.92	140.85	112.16	114.95	240.29	17.115	72.141	187.16	28.861	48.278	221.33	27.829	46.122	158.65	238.09	42.686	128.71	262.27	53.602	249.89	326.29	64.371	199.03	-195.84	1564	294.29	-277.57	1251.6	315.06
